<svg xmlns="http://www.w3.org/2000/svg" width="54" height="45" viewBox="0 0 54 45"><defs><radialGradient id="offers-a" cx="0%" cy="100%" r="160.498%" fx="0%" fy="100%" gradientTransform="matrix(0 .62306 -1 0 1 1)"><stop offset="0%" stop-color="#FDE06A"/><stop offset="100%" stop-color="#FF6B6B"/></radialGradient><radialGradient id="offers-b" cx="0%" cy="100%" r="158.356%" fx="0%" fy="100%" gradientTransform="matrix(0 .63149 -1 0 1 1)"><stop offset="0%" stop-color="#FDE06A"/><stop offset="100%" stop-color="#FF6B6B"/></radialGradient><radialGradient id="offers-d" cx="6.39%" cy="87.835%" r="100%" fx="6.39%" fy="87.835%" gradientTransform="matrix(0 1 -.53333 0 .532 .814)"><stop offset="0%" stop-color="#FDE06A"/><stop offset="100%" stop-color="#FF6B6B"/></radialGradient><radialGradient id="offers-e" cx="6.39%" cy="87.835%" r="147.647%" fx="6.39%" fy="87.835%" gradientTransform="matrix(.50388 -.25625 .13358 .96661 -.086 .046)"><stop offset="0%" stop-color="#FDE06A"/><stop offset="100%" stop-color="#FF6B6B"/></radialGradient><linearGradient id="offers-c" x1="50%" x2="50%" y1="0%" y2="100%"><stop offset="0%" stop-color="#FFF" stop-opacity="0"/><stop offset="100%" stop-color="#FFF"/></linearGradient></defs><g fill="none" fill-rule="evenodd" transform="matrix(-1 0 0 1 54 0)"><path fill="url(#offers-a)" d="m27.532 44.846 13.619-3.522V22.989L27.532 26.67z"/><path fill="url(#offers-b)" d="M27.532 44.846 13.73 41.174V22.989l13.802 3.681z"/><path fill="#FEF6DE" d="m27.532 26.781 4.151 2.999 13.954-3.912-4.486-2.934zM27.532 26.781l-4.277 2.999-13.612-3.396 4.087-3.45z"/><path fill="#CBFFDB" d="m13.73 22.934 13.802-3.821-4.128-3.111-13.761 3.493zM27.532 19.113l13.619 3.821 4.486-3.439-14.135-3.493z"/><path fill="#D0931E" d="M27.462 26.816v-7.763l13.689 3.881z"/><path fill="#D0931E" d="m27.532 26.816-.07-7.763-13.732 3.881z"/><path fill="url(#offers-c)" d="m41.151 22.934-13.619 3.847-13.802-3.847L0 5.601h53.409z" opacity=".9"/><g transform="rotate(-33 25.95 -45.413)"><path fill="url(#offers-d)" d="M10.389 2.5v1.458a1.285 1.285 0 0 0 0 2.227v1.458H.746l.001-1.458a1.285 1.285 0 0 0 0-2.227L.746 2.5h9.643Z" transform="rotate(-33 5.567 5.071)"/><path fill="#FFF8EF" d="m2.703 4.113 2.63 3.944-.535.357-2.63-3.944z"/></g><path fill="#FFF8EF" d="M13.278 2.555c.059.039 0 .128-.059.09a1.18 1.18 0 0 0-1.632.347c-.037.059-.127 0-.09-.058a1.18 1.18 0 0 0-.345-1.632c-.06-.038-.001-.128.058-.09A1.18 1.18 0 0 0 12.84.866c.038-.06.128-.001.09.058a1.18 1.18 0 0 0 .347 1.631ZM22.932 8.07c-.053.092-.192.012-.14-.08a1.77 1.77 0 0 0-.648-2.417c-.09-.052-.01-.19.08-.139.847.49 1.93.2 2.418-.646.053-.092.192-.012.139.08a1.77 1.77 0 0 0 .647 2.416c.092.053.012.192-.08.139a1.77 1.77 0 0 0-2.416.648Z"/><g transform="scale(-1 1) rotate(-25 19.163 74.967)"><path fill="url(#offers-e)" d="M10.315 2.223a1 1 0 0 1 1 1V6.61a1 1 0 0 1-1 1h-6.95L2.058 6.364a2 2 0 0 1 0-2.895l1.307-1.246h6.95ZM3.284 4.012a.735.735 0 1 0 0 1.469.735.735 0 0 0 0-1.47Z" transform="scale(-1 1) rotate(30 0 -18.025)"/><path fill="#FFF8EF" d="M2.172 4.898a.934.934 0 0 1 1.257.341l1.115 1.885a.883.883 0 0 1-.331 1.222.934.934 0 0 1-1.257-.341L1.841 6.12a.883.883 0 0 1 .331-1.222Z"/></g></g></svg>