<svg xmlns="http://www.w3.org/2000/svg" width="135" height="24" fill="none" viewBox="0 0 135 24"><path fill="#D02F2F" d="M15.033 21.497c-10.197.231-12.412-14.82-2.384-17.842 2.333-.746 7-1.137 14.66-1.155 1.117 0 2.013.942 2.013 2.115 0 1.173-.896 2.115-1.995 2.132-9.352.018-12.395.622-13.512.978-5.123 1.44-4.768 8.672.288 9.49 4.803.55 7.035-5.758 2.96-8.85 1.318-.143 3.398-.267 5.005-.32a9.057 9.057 0 0 1 1.116 3.572c.558 5.029-3.365 9.738-8.151 9.88ZM11.414 2.82c-2.435-.196-5.546-.302-9.402-.302C.896 2.518 0 3.46 0 4.633c0 1.172.896 2.114 1.995 2.132 1.725 0 3.247.018 4.566.071 1.116-1.83 2.773-3.199 4.853-4.016Z"/><path fill="#24272C" fill-rule="evenodd" d="M66.538 8.403c1.548 0 2.812.577 3.844 1.703 1.033 1.125 1.523 2.553 1.523 4.255 0 .494-.051.933-.129 1.345h-7.484c.362 1.043 1.213 1.565 2.53 1.565.85 0 1.548-.275 2.038-.851l2.529 1.565c-1.032 1.537-2.581 2.334-4.62 2.334-1.78 0-3.2-.578-4.258-1.703-1.058-1.126-1.6-2.553-1.6-4.255s.517-3.102 1.575-4.255c1.058-1.126 2.4-1.703 4.052-1.703Zm0 2.993c-1.239.027-1.988.604-2.298 1.784h4.543c-.31-1.18-1.058-1.784-2.245-1.784ZM93.424 8.403c1.548 0 2.814.577 3.846 1.703 1.032 1.125 1.523 2.553 1.523 4.255 0 .494-.053.933-.13 1.345h-7.484c.361 1.043 1.213 1.565 2.53 1.565.851 0 1.548-.275 2.038-.851l2.53 1.565c-1.033 1.537-2.582 2.334-4.62 2.334-1.78 0-3.2-.578-4.258-1.703-1.058-1.126-1.6-2.553-1.6-4.255s.516-3.102 1.574-4.255c1.058-1.126 2.4-1.703 4.051-1.703Zm0 2.993c-1.213.027-1.987.604-2.296 1.784h4.541c-.31-1.18-1.058-1.784-2.245-1.784ZM128.754 8.403c1.574 0 2.891.577 3.975 1.73 1.083 1.153 1.625 2.554 1.625 4.228 0 1.675-.542 3.075-1.625 4.228-1.084 1.152-2.427 1.73-3.975 1.73-1.574 0-2.891-.577-3.975-1.73-1.083-1.153-1.625-2.553-1.625-4.228 0-1.674.542-3.075 1.625-4.228 1.084-1.153 2.427-1.73 3.975-1.73Zm0 3.295c-.697 0-1.265.247-1.729.741-.465.495-.697 1.126-.697 1.922s.233 1.427.697 1.921c.464.494 1.032.741 1.729.741.697 0 1.265-.247 1.729-.74.465-.495.697-1.126.697-1.922 0-.768-.232-1.428-.697-1.922-.464-.494-1.032-.74-1.729-.74Z" clip-rule="evenodd"/><path fill="#24272C" d="M114.719 9.805c.619-.934 1.651-1.373 3.019-1.373 1.135 0 2.064.412 2.838 1.235.749.824 1.137 1.977 1.137 3.431v6.92h-3.175v-6.452c0-.66-.181-1.181-.516-1.51-.336-.357-.8-.523-1.316-.523-.62 0-1.085.193-1.446.578-.361.384-.541.96-.541 1.729v6.149h-3.175V4.232h3.175v5.573Z"/><path fill="#24272C" fill-rule="evenodd" d="M39.129 4.232c1.316 0 2.425.411 3.329 1.262.903.824 1.341 1.922 1.341 3.267-.026 1.236-.464 2.251-1.316 3.048 1.213.823 1.833 2.004 1.833 3.569 0 1.372-.465 2.47-1.368 3.32-.93.852-2.065 1.29-3.407 1.29h-6.219V4.233h5.807Zm-2.452 12.381h2.84c.412 0 .773-.138 1.006-.412.258-.275.386-.632.386-1.099 0-.466-.128-.823-.386-1.098-.258-.274-.594-.41-1.007-.411h-2.84v3.02Zm0-6.205h2.426c.387 0 .697-.137.93-.384.232-.275.36-.605.36-1.016 0-.412-.129-.74-.36-1.015a1.31 1.31 0 0 0-.93-.384h-2.426v2.8Z" clip-rule="evenodd"/><path fill="#24272C" d="M48.857 19.989h-3.174V8.733h3.174v11.256ZM54.17 13.675l3.174-4.941h3.716l-3.845 5.627 3.923 5.628h-3.587l-3.38-4.968v4.968h-3.175V4.232h3.174v9.443Z"/><path fill="#24272C" fill-rule="evenodd" d="M79.567 4.232c2.038 0 3.768.74 5.135 2.25 1.368 1.51 2.065 3.378 2.065 5.629 0 2.25-.697 4.117-2.065 5.627-1.367 1.51-3.097 2.25-5.135 2.25H73.63V4.233h5.936Zm-2.53 12.298h2.53c1.16 0 2.115-.412 2.838-1.208.722-.796 1.084-1.866 1.084-3.211 0-1.345-.362-2.416-1.084-3.212-.723-.796-1.677-1.209-2.838-1.209h-2.53v8.84Z" clip-rule="evenodd"/><path fill="#24272C" d="m103.597 13.675 3.174-4.941h3.716l-3.871 5.627 3.975 5.628h-3.614l-3.38-4.968v4.968h-3.175V4.232h3.175v9.443ZM47.258 3.682c.516 0 .98.191 1.342.603.36.384.567.879.567 1.428 0 .549-.18 1.043-.567 1.427-.387.385-.826.605-1.342.605-.516 0-.98-.193-1.342-.605-.387-.384-.568-.878-.568-1.427 0-.55.18-1.044.568-1.428.361-.384.826-.603 1.342-.603Z"/></svg>